<?xml version="1.0" encoding="utf-8"?>
<!-- Generator: Adobe Illustrator 17.1.0, SVG Export Plug-In . SVG Version: 6.00 Build 0)  -->
<!DOCTYPE svg PUBLIC "-//W3C//DTD SVG 1.1//EN" "http://www.w3.org/Graphics/SVG/1.1/DTD/svg11.dtd">
<svg version="1.1" id="Layer_1" xmlns="http://www.w3.org/2000/svg" xmlns:xlink="http://www.w3.org/1999/xlink" x="0px" y="0px"
	 viewBox="0 0 1920 1080" enable-background="new 0 0 1920 1080" xml:space="preserve">
<path fill="#EAACAC" d="M1073.9,74.3C1046.7,27.1,1005.3,0,960.1,0C915,0,873.5,27.1,846.3,74.3L702.9,323.5
	c35.7,20,69.7,42.8,101.8,67.9c171.2,134.1,286.6,336.6,305,566.2h-90c-17.7-196.4-115.5-369.9-260.3-487.5
	c-31.7-25.7-65.5-48.7-101.3-68.7l-168,291.9c36.5,19.6,69.3,45.2,97.3,75.4c0,0,0,0.1,0.1,0.1c47.7,51.5,80.9,116.6,93.6,188.7
	l-150.5-0.1c-16.6,0-29.9-13.4-29.9-30c0-5.2,1.3-10.1,3.6-14.3l38-64.7c-28-30.2-60.8-55.8-97.3-75.4l-63.7,109.2
	c-27.2,47.2-29.8,96.8-7.2,136c22.6,39.2,66.7,61.7,121.1,61.7h310.2c2.2-19,3.5-38.2,3.5-57.8c0-21.9-1.6-43.4-4.3-64.6
	C789.1,840.4,732.8,736,650.5,659.3l47-81.6c109.1,94.6,183.1,228.6,199.6,379.9c2.3,21.2,3.6,42.8,3.6,64.6c0,19.5-1,38.8-2.9,57.8
	h334.6c1.2-19.1,2-38.4,2-57.8c0-21.7-1-43.2-2.5-64.6c-19.1-274.8-158.4-516.9-365.7-673.2l68.2-118.6c5.3-8.7,14.8-14.5,25.7-14.5
	c11.2,0,20.9,6.1,26,15.2l429.6,746.7c2.3,4.3,3.6,9.1,3.6,14.3c0,16.6-13.4,30-29.9,30l-67.4,0.1c1.5,21.4,2.5,42.9,2.5,64.6
	c0,19.4-0.8,38.7-2,57.8h102.4c54.4,0,98.5-22.5,121.1-61.7c22.6-39.2,19.9-88.8-7.2-136L1073.9,74.3z"/>
</svg>
