<?xml version="1.0" encoding="utf-8"?>
<!-- Generator: Adobe Illustrator 17.1.0, SVG Export Plug-In . SVG Version: 6.00 Build 0)  -->
<!DOCTYPE svg PUBLIC "-//W3C//DTD SVG 1.1//EN" "http://www.w3.org/Graphics/SVG/1.1/DTD/svg11.dtd">
<svg version="1.1" id="Layer_1" xmlns="http://www.w3.org/2000/svg" xmlns:xlink="http://www.w3.org/1999/xlink" x="0px" y="0px"
	 viewBox="717 0 1203 1080" enable-background="new 717 0 1203 1080" xml:space="preserve">
<g>
	<path d="M1872.7,307.3c-167.5-96.3-335-193.2-502.5-290c-22.8-13.2-50.7-15.4-75.8-9.2c-15.4,4-27.9,13.1-41,20.5
		c-163,94-325.3,188-488.3,281.5c-31.3,19.4-48.4,57-47.3,92.9c-0.6,188.6-0.6,84-0.6,272c-2.9,44.4,25.1,86.6,65.5,104.3
		c163.5,94,327.6,188.6,491.1,283.2c18.8,12,41.6,10.8,63.2,9.7c21.7-0.6,39.3-14.2,57.5-24.5c161.8-93.4,323.1-186.9,484.9-280.3
		c26.2-17.7,45-48.4,44.4-80.3c0-194.3,0-95.4,0-289.1C1926.3,361.4,1904.7,324.9,1872.7,307.3z M1864.2,673.8
		c0.1,1.4,0.1,2.9,0,4.4c0,0.7,0,1.3,0,2c0.6,14.2-6.8,30.2-19.9,37c-166.4,96.9-333.3,192.6-500.3,289.5
		c-13.1,8.5-30.2,9.7-43.3,1.1c-159-92.3-317.9-183.5-476.9-275.8c-18.2-10.3-43.3-20.5-45-45c0-1.4,0-2.8,0-4.3
		c-0.1-1.1-0.2-2.3-0.1-3.4c0-117.4,0-156.7,0-274.1c-0.6-14.2,6.8-30.2,19.9-37C965,271.3,1132,175.5,1298.9,78.6
		c13.1-8.6,30.2-9.7,43.3-1.2c159,92.2,318,183.3,477,275.6c18.2,10.2,43.3,20.5,45,45C1864.2,515.9,1864.2,555.3,1864.2,673.8z"/>
	<path fill="none" d="M1819.2,353c-159-92.2-318-183.3-477-275.6c-13.1-8.5-30.2-7.4-43.3,1.2c-167,96.9-333.9,192.7-500.3,289.6
		c-13.1,6.8-20.5,22.8-19.9,37c0,117.4,0,156.7,0,274.1c0,1.2,0,2.3,0.1,3.4c0,1.4,0,2.8,0,4.3c1.7,24.5,26.8,34.8,45,45
		c159,92.3,317.9,183.5,476.9,275.8c13.1,8.5,30.2,7.4,43.3-1.1c166.9-96.9,333.9-192.6,500.3-289.5c13.1-6.8,20.5-22.8,19.9-37
		c0-0.7,0-1.3,0-2c0.1-1.5,0.1-2.9,0-4.4c0-118.5,0-157.9,0-275.8C1862.5,373.5,1837.4,363.3,1819.2,353z"/>
	<g>
		<polygon points="1446.6,296.8 1304,439.4 1388.8,524.2 1446.6,466.4 1610.6,630.4 1695.4,545.6 		"/>
		<polygon points="1277.6,465.7 1193.2,381.3 977.8,596.7 944.4,630.1 1029.2,714.9 1062.6,681.5 1171.8,572.3 1193.2,550.9 
			1277.6,635.4 1357.2,715 1442,630.1 1362.5,550.6 		"/>
	</g>
</g>
</svg>
