<?xml version="1.0" encoding="utf-8"?>
<!-- Generator: Adobe Illustrator 17.1.0, SVG Export Plug-In . SVG Version: 6.00 Build 0)  -->
<!DOCTYPE svg PUBLIC "-//W3C//DTD SVG 1.1//EN" "http://www.w3.org/Graphics/SVG/1.1/DTD/svg11.dtd">
<svg version="1.1" id="Layer_1" xmlns="http://www.w3.org/2000/svg" xmlns:xlink="http://www.w3.org/1999/xlink" x="0px" y="0px"
	 viewBox="0 0 1920 1080" enable-background="new 0 0 1920 1080" xml:space="preserve">
<g>
	<g>
		<path fill="#737780" d="M960.002,0c-298.237,0-540,241.767-540,540c0,298.229,241.763,540,540,540
			c298.233,0,539.996-241.771,539.996-540C1499.998,241.767,1258.235,0,960.002,0z M955.645,977.274
			c-240.881,0-436.154-195.269-436.154-436.15S714.764,104.97,955.645,104.97s436.154,195.273,436.154,436.154
			S1196.526,977.274,955.645,977.274z M1081.683,566.189H957.919V357.177c0-22.706-18.41-41.109-41.113-41.109
			c-22.706,0-41.109,18.407-41.109,41.109v250.128c0,22.706,18.407,41.117,41.109,41.117h164.877
			c22.702,0,41.109-18.41,41.109-41.117C1122.792,584.599,1104.385,566.189,1081.683,566.189z"/>
	</g>
</g>
</svg>
