<?xml version="1.0" encoding="utf-8"?>
<!-- Generator: Adobe Illustrator 17.1.0, SVG Export Plug-In . SVG Version: 6.00 Build 0)  -->
<!DOCTYPE svg PUBLIC "-//W3C//DTD SVG 1.1//EN" "http://www.w3.org/Graphics/SVG/1.1/DTD/svg11.dtd">
<svg version="1.1" id="Layer_1" xmlns="http://www.w3.org/2000/svg" xmlns:xlink="http://www.w3.org/1999/xlink" x="0px" y="0px"
	 viewBox="311.2 0 1322.7 1080" enable-background="new 311.2 0 1322.7 1080" xml:space="preserve">
<path fill="#1E687C" d="M1621.7,381.7C1565,149.4,1324.1,0,1042.8,0C979,0,913,7.7,846.7,23.9c-358.5,87.4-592.8,389.4-523.3,674.4
	C380,930.6,621,1080,902.3,1080c63.9,0,129.8-7.7,196.1-23.9C1456.9,968.7,1691.2,666.7,1621.7,381.7z M948.2,220.1
	c172.5,0,312.9,140.4,312.9,312.9s-140.4,312.9-312.9,312.9S635.3,705.5,635.3,533C635.3,360.4,775.7,220.1,948.2,220.1z
	 M948.2,893.9c199.3,0,360.9-161.6,360.9-360.9s-161.6-360.9-360.9-360.9c-66.1,0-128,17.8-181.2,48.7
	c73.1-61.1,167.1-97.9,269.6-97.9c232.1,0,421,188.8,421,421s-188.8,421-421,421c-139.8,0-263.9-68.5-340.5-173.7
	C761.1,854.7,850.1,893.9,948.2,893.9z M1362.5,881c88.2-85.3,143-204.8,143-337.1c0-259-209.9-468.9-468.9-468.9
	S567.7,284.9,567.7,543.9s209.9,468.9,468.9,468.9c15.5,0,30.8-0.8,45.9-2.2c-59.8,14.2-120.4,21.4-180.3,21.4
	c-128.6,0-252-34.1-347.6-96C458.4,873.6,394.5,787.5,370,687c-30.1-123.4,2.7-255,92.4-370.6C554.6,197.5,695.1,110.2,858,70.5
	C919.3,55.5,981.4,48,1042.8,48h0c128.6,0,252,34.1,347.6,96c96.3,62.4,160.1,148.5,184.7,249.1
	C1618.3,570.2,1529.4,755.6,1362.5,881z"/>
</svg>
