<?xml version="1.0" encoding="utf-8"?>
<!-- Generator: Adobe Illustrator 17.1.0, SVG Export Plug-In . SVG Version: 6.00 Build 0)  -->
<!DOCTYPE svg PUBLIC "-//W3C//DTD SVG 1.1//EN" "http://www.w3.org/Graphics/SVG/1.1/DTD/svg11.dtd">
<svg version="1.1" id="horizontal-logo" xmlns="http://www.w3.org/2000/svg" xmlns:xlink="http://www.w3.org/1999/xlink" x="0px"
	 y="0px" viewBox="0 355.194 395.265 401.613" enable-background="new 0 355.194 395.265 401.613" xml:space="preserve">
<circle id="mark-dot" fill="#FBFBFB" cx="194.816" cy="556" r="47.814"/>
<path id="mark-torq" fill="#FBFBFB" d="M194.816,355.194c-93.562,0-172.179,64-194.483,150.605C0.141,506.56,0,507.36,0,508.186
	c0,5.28,4.282,9.562,9.562,9.562h80.966c3.859,0,7.155-2.291,8.666-5.587c0,0,0.122-0.224,0.16-0.333
	c16.691-36.019,53.146-61.011,95.45-61.011c58.093,0,105.19,47.085,105.19,105.184s-47.085,105.184-105.178,105.184
	c-42.304,0-78.752-24.992-95.45-61.005c-0.045-0.115-0.166-0.339-0.166-0.339c-1.51-3.296-4.813-5.587-8.666-5.587H9.568
	c-5.286,0-9.568,4.282-9.568,9.562c0,0.826,0.134,1.626,0.333,2.387c22.304,86.605,100.922,150.605,194.483,150.605
	c110.906,0,200.806-89.907,200.806-200.806S305.722,355.194,194.816,355.194z"/>
</svg>
