<?xml version="1.0" encoding="utf-8"?>
<!-- Generator: Adobe Illustrator 17.1.0, SVG Export Plug-In . SVG Version: 6.00 Build 0)  -->
<!DOCTYPE svg PUBLIC "-//W3C//DTD SVG 1.1//EN" "http://www.w3.org/Graphics/SVG/1.1/DTD/svg11.dtd">
<svg version="1.1" id="Layer_1" xmlns="http://www.w3.org/2000/svg" xmlns:xlink="http://www.w3.org/1999/xlink" x="0px" y="0px"
	 viewBox="0 0 313.352 305.614" enable-background="new 0 0 313.352 305.614" xml:space="preserve">
<path fill-rule="evenodd" clip-rule="evenodd" fill="#181616" d="M156.666,0C70.154,0,0,70.145,0,156.685
	C0,225.9,44.888,284.624,107.152,305.344c7.834,1.437,10.693-3.4,10.693-7.552c0-3.719-0.136-13.572-0.212-26.647
	c-43.582,9.468-52.778-21.002-52.778-21.002c-7.124-18.099-17.395-22.918-17.395-22.918c-14.225-9.721,1.076-9.524,1.076-9.524
	c15.723,1.108,23.998,16.146,23.998,16.146c13.976,23.943,36.669,17.029,45.597,13.018c1.423-10.125,5.471-17.029,9.947-20.946
	c-34.791-3.954-71.366-17.395-71.366-77.434c0-17.104,6.105-31.09,16.127-42.042c-1.611-3.964-6.988-19.893,1.536-41.464
	c0,0,13.155-4.213,43.085,16.061c12.497-3.475,25.9-5.213,39.224-5.274c13.305,0.061,26.709,1.799,39.224,5.274
	c29.912-20.274,43.042-16.061,43.042-16.061c8.548,21.571,3.17,37.5,1.559,41.464c10.041,10.952,16.105,24.938,16.105,42.042
	c0,60.189-36.632,73.433-71.535,77.312c5.626,4.837,10.637,14.399,10.637,29.014c0,20.945-0.192,37.844-0.192,42.981
	c0,4.19,2.822,9.064,10.773,7.534c62.204-20.759,107.054-79.444,107.054-148.641C313.352,70.145,243.197,0,156.666,0z"/>
</svg>
